<svg width="182" height="39" viewBox="0 0 182 39" fill="none" xmlns="http://www.w3.org/2000/svg">
<path d="M11.0797 17.8263C10.8202 18.4309 10.4628 18.9575 10.0075 19.411C9.55214 19.8644 9.02337 20.2204 8.41626 20.4788C7.80916 20.7372 7.15799 20.8689 6.46765 20.8689H5.01842C4.32808 20.8689 3.67691 20.7372 3.06491 20.4788C2.45291 20.2204 1.91924 19.8644 1.46391 19.411C1.00858 18.9575 0.651171 18.4309 0.391682 17.8263C0.132192 17.2217 0 16.5732 0 15.8857V4.98314C0 4.29564 0.132192 3.64715 0.391682 3.04253C0.651171 2.43792 1.00858 1.91132 1.46391 1.45786C1.91924 1.0044 2.45291 0.648457 3.06491 0.390033C3.67691 0.131609 4.32808 -4.95911e-05 5.01842 -4.95911e-05H6.46765C7.15799 -4.95911e-05 7.80916 0.131609 8.41626 0.390033C9.02337 0.648457 9.55214 1.0044 10.0075 1.45786C10.4628 1.91132 10.8202 2.43792 11.0797 3.04253C11.3392 3.64715 11.4714 4.29564 11.4714 4.98314V5.80229L9.63537 6.0851V4.97826C9.63537 4.5248 9.55214 4.10061 9.38078 3.71053C9.20942 3.32046 8.97931 2.97426 8.68554 2.68171C8.39178 2.38915 8.04906 2.15999 7.65249 1.98933C7.2608 1.81868 6.83485 1.73578 6.37952 1.73578H5.10166C4.64633 1.73578 4.22037 1.81868 3.82869 1.98933C3.43701 2.15999 3.08939 2.38915 2.79073 2.68171C2.49208 2.97426 2.25707 3.31558 2.08571 3.71053C1.91434 4.10061 1.83111 4.5248 1.83111 4.97826V15.8808C1.83111 16.3343 1.91434 16.7585 2.08571 17.1486C2.25707 17.5386 2.49208 17.8848 2.79073 18.1823C3.08939 18.4797 3.43701 18.7137 3.82869 18.8844C4.22037 19.055 4.64633 19.1379 5.10166 19.1379H6.37952C6.83485 19.1379 7.2608 19.055 7.65249 18.8844C8.04417 18.7137 8.39178 18.4797 8.68554 18.1823C8.97931 17.8848 9.20942 17.5386 9.38078 17.1486C9.55214 16.7585 9.63537 16.3343 9.63537 15.8808V14.774L11.4714 15.0714V15.8759C11.4714 16.5634 11.3392 17.212 11.0797 17.8166V17.8263Z" fill="#222222"/>
<path d="M25.1901 20.5861V11.3121H17.3809V20.5861H15.5449V0.277882H17.3809V9.5665H25.1901V0.277882H27.0261V20.5861H25.1901Z" fill="#222222"/>
<path d="M39.3394 15.8565H32.8815L31.5449 20.5861H29.6404L35.6135 0.277882H36.5829L42.5855 20.5861H40.6956L39.3443 15.8565H39.3394ZM33.3858 14.1157H38.8596L36.1717 4.75397L36.1129 4.00308L36.0542 4.75397L33.3809 14.1157H33.3858Z" fill="#222222"/>
<path d="M56.2848 17.5435C56.0253 18.1481 55.6679 18.6747 55.2126 19.1282C54.7572 19.5816 54.2236 19.9376 53.6116 20.196C52.9996 20.4544 52.3484 20.5861 51.658 20.5861H45.2002V0.277882H51.658C52.3484 0.277882 53.0045 0.409526 53.6116 0.667949C54.2236 0.926373 54.7572 1.28232 55.2126 1.73578C55.6679 2.18924 56.0253 2.72072 56.2848 3.33021C56.5443 3.9397 56.6765 4.58819 56.6765 5.2757V5.47561C56.6765 5.95833 56.6128 6.41666 56.4855 6.85549C56.3582 7.29433 56.1771 7.70391 55.9372 8.07935C55.7022 8.4548 55.4182 8.80098 55.1 9.10817C54.7768 9.41535 54.4194 9.67378 54.0179 9.87857C54.4145 10.0882 54.7768 10.3418 55.1 10.649C55.4231 10.9561 55.7022 11.3023 55.9372 11.6827C56.1722 12.063 56.3582 12.4774 56.4855 12.9163C56.6128 13.3551 56.6765 13.8134 56.6765 14.2962V15.598C56.6765 16.2855 56.5443 16.934 56.2848 17.5386V17.5435ZM54.8405 5.2757C54.8405 4.82224 54.7572 4.39803 54.5859 4.00796C54.4145 3.61788 54.1795 3.2717 53.8808 2.97426C53.5822 2.67683 53.2346 2.44279 52.8429 2.27213C52.4512 2.10147 52.0253 2.01859 51.5699 2.01859H47.0313V9.01554H51.5699C52.0253 9.01554 52.4512 8.93264 52.8429 8.76198C53.2346 8.59132 53.5822 8.35728 53.8808 8.05985C54.1795 7.76241 54.4145 7.41623 54.5859 7.02615C54.7572 6.63608 54.8405 6.21187 54.8405 5.75841V5.2757ZM54.8405 14.0036C54.8405 13.5501 54.7572 13.1259 54.5859 12.7359C54.4145 12.3458 54.1795 11.9996 53.8808 11.707C53.5822 11.4145 53.2346 11.1853 52.8429 11.0147C52.4512 10.844 52.0253 10.7611 51.5699 10.7611H47.0313V18.8454H51.5699C52.0253 18.8454 52.4512 18.7625 52.8429 18.5918C53.2346 18.4212 53.5822 18.192 53.8808 17.8994C54.1795 17.6069 54.4145 17.2656 54.5859 16.8706C54.7572 16.4806 54.8405 16.0564 54.8405 15.6029V14.0036Z" fill="#222222"/>
<path d="M67.8245 15.8565H61.3667L60.03 20.5861H58.1255L64.0986 0.277882H65.068L71.0706 20.5861H69.1807L67.8294 15.8565H67.8245ZM61.8661 14.1157H67.3398L64.6519 4.75397L64.5931 4.00308L64.5344 4.75397L61.8612 14.1157H61.8661Z" fill="#222222"/>
<path d="M84.7699 17.5435C84.5104 18.1481 84.153 18.6747 83.6977 19.1282C83.2423 19.5816 82.7087 19.9376 82.0967 20.196C81.4847 20.4544 80.8335 20.5861 80.1432 20.5861H73.6853V0.277882H80.1432C80.8335 0.277882 81.4896 0.409526 82.0967 0.667949C82.7087 0.926373 83.2423 1.28232 83.6977 1.73578C84.153 2.18924 84.5104 2.72072 84.7699 3.33021C85.0294 3.9397 85.1616 4.58819 85.1616 5.2757V15.598C85.1616 16.2855 85.0294 16.934 84.7699 17.5386V17.5435ZM83.3256 5.2757C83.3256 4.82224 83.2423 4.39803 83.071 4.00796C82.8996 3.61788 82.6646 3.2717 82.3659 2.97426C82.0673 2.67683 81.7197 2.44279 81.328 2.27213C80.9363 2.10147 80.5104 2.01859 80.055 2.01859H75.5164V18.8454H80.055C80.5104 18.8454 80.9363 18.7625 81.328 18.5918C81.7197 18.4212 82.0673 18.192 82.3659 17.8994C82.6646 17.6069 82.8996 17.2656 83.071 16.8706C83.2423 16.4806 83.3256 16.0564 83.3256 15.6029V5.28058V5.2757Z" fill="#222222"/>
<path d="M107.008 17.8263C106.748 18.4309 106.391 18.9575 105.935 19.4109C105.48 19.8644 104.951 20.2203 104.344 20.4788C103.737 20.7372 103.086 20.8688 102.396 20.8688H100.946C100.256 20.8688 99.6049 20.7372 98.9929 20.4788C98.3809 20.2203 97.8472 19.8644 97.3919 19.4109C96.9366 18.9575 96.5792 18.4309 96.3197 17.8263C96.0602 17.2216 95.928 16.5732 95.928 15.8857V4.98309C95.928 4.29559 96.0602 3.6471 96.3197 3.04248C96.5792 2.43787 96.9366 1.91127 97.3919 1.45781C97.8472 1.00435 98.3809 0.648407 98.9929 0.389983C99.6049 0.13156 100.256 -9.91821e-05 100.946 -9.91821e-05H102.396C103.086 -9.91821e-05 103.737 0.13156 104.344 0.389983C104.951 0.648407 105.48 1.00435 105.935 1.45781C106.391 1.91127 106.748 2.43787 107.008 3.04248C107.267 3.6471 107.399 4.29559 107.399 4.98309V5.80224L105.563 6.08505V4.97821C105.563 4.52475 105.48 4.10056 105.309 3.71048C105.137 3.32041 104.907 2.97421 104.614 2.68166C104.32 2.3891 103.977 2.15994 103.58 1.98928C103.189 1.81863 102.763 1.73573 102.308 1.73573H101.03C100.574 1.73573 100.148 1.81863 99.7567 1.98928C99.365 2.15994 99.0174 2.3891 98.7187 2.68166C98.4201 2.97421 98.185 3.31553 98.0137 3.71048C97.8423 4.10056 97.7591 4.52475 97.7591 4.97821V15.8808C97.7591 16.3342 97.8423 16.7584 98.0137 17.1485C98.185 17.5386 98.4201 17.8848 98.7187 18.1822C99.0174 18.4796 99.365 18.7137 99.7567 18.8843C100.148 19.055 100.574 19.1379 101.03 19.1379H102.308C102.763 19.1379 103.189 19.055 103.58 18.8843C103.972 18.7137 104.32 18.4796 104.614 18.1822C104.907 17.8848 105.137 17.5386 105.309 17.1485C105.48 16.7584 105.563 16.3342 105.563 15.8808V14.7739L107.399 15.0714V15.8759C107.399 16.5634 107.267 17.2119 107.008 17.8165V17.8263Z" fill="#222222"/>
<path d="M111.482 20.5861V0.277882H122.959V2.01859H113.318V9.5665H121.128V11.3072H113.318V18.8405H122.959V20.5812H111.482V20.5861Z" fill="#222222"/>
<path d="M136.966 20.5861L128.462 5.80229L128.291 4.92463V20.5861H126.455V0.277882H127.409L135.914 15.0763L136.1 15.9393V0.277882H137.936V20.5861H136.971H136.966Z" fill="#222222"/>
<path d="M147.542 2.01859V20.5861H145.705V2.01859H140.844V0.277882H152.403V2.01859H147.542Z" fill="#222222"/>
<path d="M155.322 20.5861V0.277882H166.798V2.01859H157.158V9.5665H164.967V11.3072H157.158V18.8405H166.798V20.5812H155.322V20.5861Z" fill="#222222"/>
<path d="M179.88 20.5861L174.347 11.9167H171.831V20.5861H169.995V0.277882H176.467C177.158 0.277882 177.809 0.409526 178.416 0.667949C179.023 0.926373 179.552 1.28232 180.007 1.73578C180.463 2.18924 180.82 2.72072 181.079 3.33021C181.339 3.9397 181.471 4.58819 181.471 5.2757V6.91888C181.471 7.60639 181.339 8.25488 181.079 8.86437C180.82 9.47386 180.463 10.0053 180.007 10.4588C179.552 10.9123 179.023 11.2682 178.416 11.5266C177.809 11.7851 177.158 11.9167 176.467 11.9167L182 20.5861H179.88ZM179.64 5.2757C179.64 4.82224 179.557 4.39803 179.385 4.00796C179.214 3.61788 178.984 3.2717 178.69 2.97426C178.396 2.67683 178.054 2.44279 177.657 2.27213C177.265 2.10147 176.84 2.01859 176.384 2.01859H171.836V10.176H176.384C176.84 10.176 177.265 10.0931 177.657 9.92245C178.049 9.75179 178.396 9.51775 178.69 9.22032C178.984 8.92289 179.214 8.5767 179.385 8.18662C179.557 7.79655 179.64 7.37234 179.64 6.91888V5.2757Z" fill="#222222"/>
<path d="M1.28288 29.714V33.3222H5.01365V34.156H1.28288V38.5882H0.406494V28.8803H5.89004V29.714H1.28288Z" fill="#222222"/>
<path d="M15.2218 37.2666C15.0994 37.5543 14.9281 37.8078 14.7077 38.0224C14.4923 38.2369 14.2377 38.4076 13.9488 38.5343C13.66 38.6562 13.3466 38.7196 13.0186 38.7196H12.3234C11.9904 38.7196 11.682 38.6562 11.3882 38.5343C11.0945 38.4124 10.8399 38.2418 10.6244 38.0224C10.409 37.8078 10.2377 37.5543 10.1104 37.2666C9.98796 36.9789 9.92432 36.6669 9.92432 36.3402V31.1278C9.92432 30.7963 9.98796 30.4891 10.1104 30.2014C10.2328 29.9137 10.4041 29.6602 10.6244 29.4456C10.8399 29.2311 11.0945 29.0604 11.3882 28.9337C11.682 28.8118 11.9904 28.7484 12.3234 28.7484H13.0186C13.3515 28.7484 13.66 28.8118 13.9488 28.9337C14.2377 29.0556 14.4923 29.2262 14.7077 29.4456C14.9232 29.6602 15.0945 29.9137 15.2218 30.2014C15.3442 30.4891 15.4079 30.8011 15.4079 31.1278V36.3402C15.4079 36.6717 15.3442 36.9789 15.2218 37.2666ZM14.5364 31.1278C14.5364 30.9133 14.4972 30.7085 14.414 30.5232C14.3307 30.3379 14.223 30.1721 14.081 30.0307C13.9391 29.8893 13.7775 29.7821 13.5865 29.6992C13.3956 29.6163 13.1949 29.5773 12.9794 29.5773H12.3674C12.152 29.5773 11.9464 29.6163 11.7603 29.6992C11.5743 29.7821 11.4078 29.8893 11.2658 30.0307C11.1238 30.1721 11.0112 30.333 10.928 30.5232C10.8448 30.7134 10.8056 30.9133 10.8056 31.1278V36.3402C10.8056 36.5547 10.8448 36.7595 10.928 36.9448C11.0112 37.1301 11.1238 37.2959 11.2658 37.4373C11.4078 37.5787 11.5743 37.6908 11.7603 37.7737C11.9464 37.8566 12.152 37.8956 12.3674 37.8956H12.9794C13.1949 37.8956 13.4005 37.8566 13.5865 37.7737C13.7726 37.6908 13.9391 37.5787 14.081 37.4373C14.223 37.2959 14.3307 37.1301 14.414 36.9448C14.4972 36.7595 14.5364 36.5547 14.5364 36.3402V31.1278Z" fill="#222222"/>
<path d="M24.8719 38.5882L22.228 34.4437H21.0236V38.5882H20.1472V28.8803H23.2415C23.5744 28.8803 23.8829 28.9436 24.1717 29.0655C24.4606 29.1874 24.7152 29.3581 24.9306 29.5775C25.1461 29.7969 25.3174 30.0456 25.4447 30.3382C25.5671 30.6307 25.6308 30.9379 25.6308 31.2695V32.0545C25.6308 32.386 25.5671 32.6932 25.4447 32.9858C25.3223 33.2783 25.151 33.5319 24.9306 33.7464C24.7103 33.961 24.4606 34.1316 24.1717 34.2584C23.8829 34.3803 23.5695 34.4437 23.2415 34.4437L25.8854 38.5882H24.8719ZM24.7544 31.2695C24.7544 31.0549 24.7152 30.8501 24.632 30.6648C24.5487 30.4796 24.441 30.3138 24.299 30.1724C24.1571 30.031 23.9955 29.9188 23.8045 29.8359C23.6136 29.753 23.4129 29.714 23.1974 29.714H21.0236V33.6148H23.1974C23.4129 33.6148 23.6185 33.5758 23.8045 33.4929C23.9906 33.41 24.1571 33.2978 24.299 33.1564C24.441 33.015 24.5487 32.8493 24.632 32.664C24.7152 32.4787 24.7544 32.2739 24.7544 32.0594V31.2743V31.2695Z" fill="#222222"/>
<path d="M40.5095 37.2668C40.3871 37.5545 40.2158 37.8081 39.9954 38.0226C39.78 38.2371 39.5254 38.4078 39.2365 38.5346C38.9477 38.6565 38.6343 38.7199 38.3063 38.7199H38.0272C37.6943 38.7199 37.3858 38.6565 37.0921 38.5346C36.7983 38.4127 36.5437 38.242 36.3283 38.0226C36.1129 37.8032 35.9415 37.5545 35.8142 37.2668C35.6918 36.9792 35.6282 36.6671 35.6282 36.3404V35.9552L36.5046 35.8138V36.3404C36.5046 36.5549 36.5437 36.7597 36.627 36.945C36.7102 37.1303 36.8228 37.2961 36.9648 37.4375C37.1068 37.5789 37.2732 37.691 37.4593 37.7739C37.6453 37.8568 37.851 37.8958 38.0664 37.8958H38.2622C38.4728 37.8958 38.6784 37.8568 38.8693 37.7739C39.0603 37.691 39.2268 37.5789 39.3638 37.4375C39.5058 37.2961 39.6135 37.1303 39.6968 36.945C39.78 36.7597 39.8192 36.5549 39.8192 36.3404V28.8803H40.6956V36.3404C40.6956 36.672 40.6319 36.9792 40.5095 37.2668Z" fill="#222222"/>
<path d="M45.4304 38.5882V28.8803H50.914V29.714H46.3068V33.3222H50.0376V34.156H46.3068V37.7593H50.914V38.5931H45.4304V38.5882Z" fill="#222222"/>
<path d="M61.8809 38.5882H61.4256L59.5308 31.2841L59.5014 30.9038L59.4623 31.2841L57.5822 38.5882H57.1269L54.5369 28.8803H55.4133L57.3227 36.2575L57.3521 36.6183L57.3815 36.2575L59.2566 28.8803H59.7462L61.6214 36.2575L61.6508 36.6183L61.6851 36.2575L63.5896 28.8803H64.466L61.8907 38.5882H61.8809Z" fill="#222222"/>
<path d="M68.6323 38.5882V28.8803H69.5087V38.5882H68.6323Z" fill="#222222"/>
<path d="M79.8687 36.3399C79.8687 36.6715 79.8002 36.9786 79.668 37.2663C79.5358 37.554 79.3546 37.8076 79.1294 38.0221C78.9042 38.2366 78.6447 38.4073 78.346 38.5341C78.0474 38.656 77.734 38.7194 77.406 38.7194H76.7059C76.3729 38.7194 76.0596 38.656 75.7658 38.5341C75.4672 38.4122 75.2077 38.2415 74.9825 38.0221C74.7572 37.8076 74.581 37.554 74.4439 37.2663C74.3117 36.9786 74.2432 36.6666 74.2432 36.3399V35.9547L75.1195 35.8133V36.3399C75.1195 36.5544 75.1636 36.7592 75.2517 36.9445C75.3399 37.1298 75.4574 37.2956 75.6092 37.437C75.7609 37.5784 75.9323 37.6905 76.1281 37.7734C76.324 37.8563 76.5345 37.8953 76.7499 37.8953H77.3619C77.5774 37.8953 77.7879 37.8563 77.9788 37.7734C78.1747 37.6905 78.346 37.5784 78.4978 37.437C78.6496 37.2956 78.7671 37.1298 78.8552 36.9445C78.9433 36.7592 78.9874 36.5544 78.9874 36.3399V36.0473C78.9874 35.7158 78.9238 35.4379 78.7916 35.2136C78.6594 34.9942 78.4831 34.804 78.2677 34.648C78.0523 34.4919 77.8026 34.3603 77.5284 34.253C77.2542 34.1457 76.9702 34.0385 76.6814 33.9263C76.3925 33.8142 76.1085 33.6972 75.8344 33.5655C75.5602 33.4339 75.3154 33.273 75.0951 33.073C74.8796 32.878 74.7034 32.6342 74.5712 32.3514C74.439 32.0686 74.3754 31.7175 74.3754 31.3031V31.1178C74.3754 30.7862 74.439 30.4791 74.5614 30.1914C74.6838 29.9037 74.8552 29.6501 75.0755 29.4356C75.2909 29.2211 75.5455 29.0504 75.8393 28.9236C76.133 28.8017 76.4415 28.7383 76.7744 28.7383H77.4011C77.734 28.7383 78.0425 28.8017 78.3313 28.9236C78.6202 29.0455 78.8748 29.2162 79.0902 29.4356C79.3056 29.6501 79.477 29.9037 79.6043 30.1914C79.7267 30.4791 79.7904 30.7911 79.7904 31.1178V31.3665L78.914 31.5079V31.1129C78.914 30.8984 78.8748 30.6936 78.7916 30.5083C78.7083 30.323 78.6006 30.1572 78.4586 30.0158C78.3167 29.8744 78.1551 29.7672 77.9641 29.6843C77.7732 29.6014 77.5725 29.5624 77.357 29.5624H76.8136C76.5982 29.5624 76.3925 29.6014 76.2065 29.6843C76.0204 29.7672 75.854 29.8744 75.712 30.0158C75.57 30.1572 75.4574 30.3182 75.3741 30.5083C75.2909 30.6985 75.2517 30.8984 75.2517 31.1129V31.2982C75.2517 31.6103 75.3154 31.8687 75.4476 32.0832C75.5798 32.2978 75.756 32.4782 75.9715 32.6293C76.1869 32.7805 76.4366 32.9121 76.7108 33.0194C76.9849 33.1316 77.2689 33.2437 77.5578 33.3558C77.8466 33.4729 78.1306 33.5996 78.4048 33.7362C78.679 33.8727 78.9238 34.0434 79.1441 34.2433C79.3595 34.4432 79.5358 34.687 79.668 34.9795C79.8002 35.2721 79.8638 35.6183 79.8638 36.0376V36.3302L79.8687 36.3399Z" fill="#222222"/>
<path d="M89.1421 38.5882V34.156H85.4113V38.5882H84.5349V28.8803H85.4113V33.3222H89.1421V28.8803H90.0185V38.5882H89.1421Z" fill="#222222"/>
<path d="M106.317 37.1296C106.195 37.4173 106.023 37.6709 105.803 37.8854C105.583 38.0999 105.333 38.2706 105.039 38.3974C104.745 38.5193 104.437 38.5827 104.104 38.5827H101.02V28.8747H104.104C104.437 28.8747 104.745 28.9381 105.039 29.06C105.333 29.1819 105.588 29.3525 105.803 29.5719C106.018 29.7914 106.19 30.04 106.317 30.3326C106.439 30.6251 106.503 30.9323 106.503 31.2639V36.1983C106.503 36.5299 106.439 36.8371 106.317 37.1248V37.1296ZM105.627 31.2688C105.627 31.0542 105.588 30.8494 105.504 30.6642C105.421 30.4789 105.308 30.3131 105.166 30.1717C105.024 30.0303 104.858 29.9181 104.672 29.8353C104.486 29.7524 104.28 29.7134 104.065 29.7134H101.896V37.7537H104.065C104.28 37.7537 104.486 37.7147 104.672 37.6318C104.858 37.549 105.024 37.4417 105.166 37.3003C105.308 37.1589 105.421 36.998 105.504 36.8078C105.588 36.6177 105.627 36.4177 105.627 36.2032V31.2688Z" fill="#222222"/>
<path d="M111.375 38.5882V28.8803H112.251V38.5882H111.375Z" fill="#222222"/>
<path d="M122.606 36.3399C122.606 36.6715 122.538 36.9786 122.406 37.2663C122.274 37.554 122.092 37.8076 121.867 38.0221C121.642 38.2366 121.382 38.4073 121.084 38.5341C120.785 38.656 120.472 38.7194 120.144 38.7194H119.444C119.111 38.7194 118.797 38.656 118.504 38.5341C118.205 38.4122 117.945 38.2415 117.72 38.0221C117.495 37.8076 117.319 37.554 117.182 37.2663C117.05 36.9786 116.981 36.6666 116.981 36.3399V35.9547L117.857 35.8133V36.3399C117.857 36.5544 117.901 36.7592 117.99 36.9445C118.078 37.1298 118.195 37.2956 118.347 37.437C118.499 37.5784 118.67 37.6905 118.866 37.7734C119.062 37.8563 119.272 37.8953 119.488 37.8953H120.1C120.315 37.8953 120.526 37.8563 120.717 37.7734C120.912 37.6905 121.084 37.5784 121.236 37.437C121.387 37.2956 121.505 37.1298 121.593 36.9445C121.681 36.7592 121.725 36.5544 121.725 36.3399V36.0473C121.725 35.7158 121.662 35.4379 121.529 35.2136C121.397 34.9942 121.221 34.804 121.005 34.648C120.79 34.4919 120.54 34.3603 120.266 34.253C119.992 34.1457 119.708 34.0385 119.419 33.9263C119.13 33.8142 118.846 33.6972 118.572 33.5655C118.298 33.4339 118.053 33.273 117.833 33.073C117.617 32.878 117.441 32.6342 117.309 32.3514C117.177 32.0686 117.113 31.7175 117.113 31.3031V31.1178C117.113 30.7862 117.177 30.4791 117.299 30.1914C117.422 29.9037 117.593 29.6501 117.813 29.4356C118.029 29.2211 118.283 29.0504 118.577 28.9236C118.871 28.8017 119.179 28.7383 119.512 28.7383H120.139C120.472 28.7383 120.78 28.8017 121.069 28.9236C121.358 29.0455 121.613 29.2162 121.828 29.4356C122.043 29.6501 122.215 29.9037 122.342 30.1914C122.464 30.4791 122.528 30.7911 122.528 31.1178V31.3665L121.652 31.5079V31.1129C121.652 30.8984 121.613 30.6936 121.529 30.5083C121.446 30.323 121.338 30.1572 121.196 30.0158C121.054 29.8744 120.893 29.7672 120.702 29.6843C120.511 29.6014 120.31 29.5624 120.095 29.5624H119.551C119.336 29.5624 119.13 29.6014 118.944 29.6843C118.758 29.7672 118.592 29.8744 118.45 30.0158C118.308 30.1572 118.195 30.3182 118.112 30.5083C118.029 30.6985 117.99 30.8984 117.99 31.1129V31.2982C117.99 31.6103 118.053 31.8687 118.185 32.0832C118.318 32.2978 118.494 32.4782 118.709 32.6293C118.925 32.7805 119.174 32.9121 119.449 33.0194C119.723 33.1316 120.007 33.2437 120.296 33.3558C120.584 33.4729 120.868 33.5996 121.143 33.7362C121.417 33.8727 121.662 34.0434 121.882 34.2433C122.097 34.4432 122.274 34.687 122.406 34.9795C122.538 35.2721 122.602 35.6183 122.602 36.0376V36.3302L122.606 36.3399Z" fill="#222222"/>
<path d="M132.428 37.2666C132.305 37.5543 132.134 37.8078 131.914 38.0224C131.698 38.2369 131.444 38.4076 131.155 38.5343C130.866 38.6562 130.552 38.7196 130.224 38.7196H129.529C129.196 38.7196 128.888 38.6562 128.594 38.5343C128.3 38.4124 128.046 38.2418 127.83 38.0224C127.615 37.8078 127.443 37.5543 127.316 37.2666C127.194 36.9789 127.13 36.6669 127.13 36.3402V31.1278C127.13 30.7963 127.194 30.4891 127.316 30.2014C127.439 29.9137 127.61 29.6602 127.83 29.4456C128.046 29.2311 128.3 29.0604 128.594 28.9337C128.888 28.8118 129.196 28.7484 129.529 28.7484H130.224C130.557 28.7484 130.866 28.8118 131.155 28.9337C131.444 29.0556 131.698 29.2262 131.914 29.4456C132.129 29.6602 132.3 29.9137 132.428 30.2014C132.55 30.4891 132.614 30.8011 132.614 31.1278V31.5228L131.737 31.6593V31.1327C131.737 30.9182 131.698 30.7134 131.615 30.5281C131.532 30.3428 131.424 30.177 131.282 30.0356C131.14 29.8942 130.978 29.7869 130.787 29.7041C130.597 29.6212 130.396 29.5822 130.18 29.5822H129.568C129.353 29.5822 129.147 29.6212 128.961 29.7041C128.775 29.7869 128.609 29.8942 128.467 30.0356C128.325 30.177 128.212 30.3379 128.129 30.5281C128.046 30.7183 128.007 30.9182 128.007 31.1327V36.3451C128.007 36.5596 128.046 36.7644 128.129 36.9497C128.212 37.135 128.325 37.3007 128.467 37.4421C128.609 37.5835 128.775 37.6957 128.961 37.7786C129.147 37.8615 129.353 37.9005 129.568 37.9005H130.18C130.396 37.9005 130.601 37.8615 130.787 37.7786C130.974 37.6957 131.14 37.5835 131.282 37.4421C131.424 37.3007 131.532 37.135 131.615 36.9497C131.698 36.7644 131.737 36.5596 131.737 36.3451V35.8185L132.614 35.9599V36.3451C132.614 36.6766 132.55 36.9838 132.428 37.2715V37.2666Z" fill="#222222"/>
<path d="M142.504 37.2666C142.381 37.5543 142.21 37.8078 141.989 38.0224C141.774 38.2369 141.519 38.4076 141.231 38.5343C140.942 38.6562 140.628 38.7196 140.3 38.7196H139.605C139.272 38.7196 138.964 38.6562 138.67 38.5343C138.376 38.4124 138.122 38.2418 137.906 38.0224C137.691 37.8078 137.519 37.5543 137.392 37.2666C137.27 36.9789 137.206 36.6669 137.206 36.3402V31.1278C137.206 30.7963 137.27 30.4891 137.392 30.2014C137.515 29.9137 137.686 29.6602 137.906 29.4456C138.122 29.2311 138.376 29.0604 138.67 28.9337C138.964 28.8118 139.272 28.7484 139.605 28.7484H140.3C140.633 28.7484 140.942 28.8118 141.231 28.9337C141.519 29.0556 141.774 29.2262 141.989 29.4456C142.205 29.6602 142.376 29.9137 142.504 30.2014C142.626 30.4891 142.69 30.8011 142.69 31.1278V36.3402C142.69 36.6717 142.626 36.9789 142.504 37.2666ZM141.813 31.1278C141.813 30.9133 141.774 30.7085 141.691 30.5232C141.608 30.3379 141.5 30.1721 141.358 30.0307C141.216 29.8893 141.054 29.7821 140.863 29.6992C140.672 29.6163 140.472 29.5773 140.256 29.5773H139.644C139.429 29.5773 139.223 29.6163 139.037 29.6992C138.851 29.7821 138.685 29.8893 138.543 30.0307C138.401 30.1721 138.288 30.333 138.205 30.5232C138.122 30.7134 138.082 30.9133 138.082 31.1278V36.3402C138.082 36.5547 138.122 36.7595 138.205 36.9448C138.288 37.1301 138.401 37.2959 138.543 37.4373C138.685 37.5787 138.851 37.6908 139.037 37.7737C139.223 37.8566 139.429 37.8956 139.644 37.8956H140.256C140.472 37.8956 140.677 37.8566 140.863 37.7737C141.049 37.6908 141.216 37.5787 141.358 37.4373C141.5 37.2959 141.608 37.1301 141.691 36.9448C141.774 36.7595 141.813 36.5547 141.813 36.3402V31.1278Z" fill="#222222"/>
<path d="M149.657 36.4526L149.686 36.8134L149.716 36.4526L151.875 28.8803H152.781L149.912 38.5882H149.451L146.597 28.8803H147.508L149.662 36.4526H149.657Z" fill="#222222"/>
<path d="M156.81 38.5882V28.8803H162.293V29.714H157.686V33.3222H161.417V34.156H157.686V37.7593H162.293V38.5931H156.81V38.5882Z" fill="#222222"/>
<path d="M171.331 38.5882L168.687 34.4437H167.483V38.5882H166.607V28.8803H169.701C170.034 28.8803 170.342 28.9436 170.631 29.0655C170.92 29.1874 171.175 29.3581 171.39 29.5775C171.606 29.7969 171.777 30.0456 171.904 30.3382C172.027 30.6307 172.09 30.9379 172.09 31.2695V32.0545C172.09 32.386 172.027 32.6932 171.904 32.9858C171.782 33.2783 171.61 33.5319 171.39 33.7464C171.17 33.961 170.92 34.1316 170.631 34.2584C170.342 34.3803 170.029 34.4437 169.701 34.4437L172.345 38.5882H171.331ZM171.219 31.2695C171.219 31.0549 171.18 30.8501 171.096 30.6648C171.013 30.4796 170.905 30.3138 170.763 30.1724C170.621 30.031 170.46 29.9188 170.269 29.8359C170.078 29.753 169.877 29.714 169.662 29.714H167.488V33.6148H169.662C169.877 33.6148 170.083 33.5758 170.269 33.4929C170.455 33.41 170.621 33.2978 170.763 33.1564C170.905 33.015 171.013 32.8493 171.096 32.664C171.18 32.4787 171.219 32.2739 171.219 32.0594V31.2743V31.2695Z" fill="#222222"/>
<path d="M179.087 33.9408V38.5827H178.21V33.9505L175.689 28.8747H176.634L178.636 32.9071L180.639 28.8747H181.584L179.082 33.9359L179.087 33.9408Z" fill="#222222"/>
</svg>
